<?xml version="1.0" standalone="no"?>
<!DOCTYPE svg PUBLIC "-//W3C//DTD SVG 1.1//EN"
"http://www.w3.org/Graphics/SVG/1.1/DTD/svg11.dtd">

<svg width="342" height="288" view_box="0 0 342 288"
xmlns="http://www.w3.org/2000/svg"
xmlns:link="http://www.w3.org/1999/xlink">\n\n<desc>Généré par Mocodo 2.3.7 le Wed, 17 Feb 2021 05:37:58</desc>

<rect id="frame" x="0" y="0" width="342" height="288" fill="#ffffbf" stroke="none" stroke-width="0"/>

<!-- Association relates to -->
<line x1="165" y1="135" x2="165" y2="245" stroke="#f46d43" stroke-width="2"/>
<text x="170.0" y="203" fill="#1a9850" font-family="Verdana" font-size="12">0,N</text>
<line x1="283" y1="245" x2="165" y2="245" stroke="#f46d43" stroke-width="2"/>
<text x="207" y="262.0" fill="#1a9850" font-family="Verdana" font-size="12">1,1</text>
<g id="association-relates to">
	<path d="M 187 220 a 14 14 90 0 1 14 14 V 245 h -72 V 234 a 14 14 90 0 1 14 -14" fill="#fdae61" stroke="#fdae61" stroke-width="0"/>
	<path d="M 201 245.0 v 11 a 14 14 90 0 1 -14 14 H 143 a 14 14 90 0 1 -14 -14 V 245.0 H 72" fill="#fee08b" stroke="#fee08b" stroke-width="0"/>
	<rect x="129" y="220" width="72" height="50" fill="none" rx="14" stroke="#f46d43" stroke-width="2"/>
	<line x1="129" y1="245" x2="201" y2="245" stroke="#f46d43" stroke-width="1"/>
	<text x="136" y="237.7" fill="#000000" font-family="Verdana" font-size="12">relates to</text>
</g>

<!-- Association posts -->
<line x1="283" y1="245" x2="283" y2="135" stroke="#f46d43" stroke-width="2"/>
<text x="288.0" y="203" fill="#1a9850" font-family="Verdana" font-size="12">1,1</text>
<line x1="283" y1="34" x2="283" y2="135" stroke="#f46d43" stroke-width="2"/>
<text x="288.0" y="76" fill="#1a9850" font-family="Verdana" font-size="12">0,N</text>
<g id="association-posts">
	<path d="M 293 110 a 14 14 90 0 1 14 14 V 135 h -48 V 124 a 14 14 90 0 1 14 -14" fill="#fdae61" stroke="#fdae61" stroke-width="0"/>
	<path d="M 307 135.0 v 11 a 14 14 90 0 1 -14 14 H 273 a 14 14 90 0 1 -14 -14 V 135.0 H 48" fill="#fee08b" stroke="#fee08b" stroke-width="0"/>
	<rect x="259" y="110" width="48" height="50" fill="none" rx="14" stroke="#f46d43" stroke-width="2"/>
	<line x1="259" y1="135" x2="307" y2="135" stroke="#f46d43" stroke-width="1"/>
	<text x="266" y="127.7" fill="#000000" font-family="Verdana" font-size="12">posts</text>
</g>

<!-- Association belongs to -->
<line x1="165" y1="135" x2="51" y2="135" stroke="#f46d43" stroke-width="2"/>
<text x="95" y="152.0" fill="#1a9850" font-family="Verdana" font-size="12">0,N</text>
<line x1="51" y1="245" x2="51" y2="135" stroke="#f46d43" stroke-width="2"/>
<text x="56.0" y="203" fill="#1a9850" font-family="Verdana" font-size="12">0,N</text>
<g id="association-belongs to">
	<path d="M 76 110 a 14 14 90 0 1 14 14 V 135 h -78 V 124 a 14 14 90 0 1 14 -14" fill="#fdae61" stroke="#fdae61" stroke-width="0"/>
	<path d="M 90 135.0 v 11 a 14 14 90 0 1 -14 14 H 26 a 14 14 90 0 1 -14 -14 V 135.0 H 78" fill="#fee08b" stroke="#fee08b" stroke-width="0"/>
	<rect x="12" y="110" width="78" height="50" fill="none" rx="14" stroke="#f46d43" stroke-width="2"/>
	<line x1="12" y1="135" x2="90" y2="135" stroke="#f46d43" stroke-width="1"/>
	<text x="19" y="127.7" fill="#000000" font-family="Verdana" font-size="12">belongs to</text>
</g>

<!-- Association plays in -->
<line x1="165" y1="135" x2="165" y2="34" stroke="#f46d43" stroke-width="2"/>
<text x="170.0" y="76" fill="#1a9850" font-family="Verdana" font-size="12">0,N</text>
<line x1="51" y1="34" x2="165" y2="34" stroke="#f46d43" stroke-width="2"/>
<text x="96" y="51.0" fill="#1a9850" font-family="Verdana" font-size="12">0,N</text>
<g id="association-plays in">
	<path d="M 182 9 a 14 14 90 0 1 14 14 V 34 h -62 V 23 a 14 14 90 0 1 14 -14" fill="#fdae61" stroke="#fdae61" stroke-width="0"/>
	<path d="M 196 34.0 v 11 a 14 14 90 0 1 -14 14 H 148 a 14 14 90 0 1 -14 -14 V 34.0 H 62" fill="#fee08b" stroke="#fee08b" stroke-width="0"/>
	<rect x="134" y="9" width="62" height="50" fill="none" rx="14" stroke="#f46d43" stroke-width="2"/>
	<line x1="134" y1="34" x2="196" y2="34" stroke="#f46d43" stroke-width="1"/>
	<text x="141" y="26.7" fill="#000000" font-family="Verdana" font-size="12">plays in</text>
	<text x="141" y="51.8" fill="#000000" font-family="Verdana" font-size="12">role</text>
</g>

<!-- Entity GENRE -->
<g id="entity-GENRE">
	<g id="frame-GENRE">
		<rect x="9" y="211" width="84" height="25" fill="#a6d96a" stroke="#a6d96a" stroke-width="0"/>
		<rect x="9" y="236.0" width="84" height="43" fill="#d9ef8b" stroke="#d9ef8b" stroke-width="0"/>
		<rect x="9" y="211" width="84" height="68" fill="none" stroke="#66bd63" stroke-width="2"/>
		<line x1="9" y1="236" x2="93" y2="236" stroke="#66bd63" stroke-width="1"/>
	</g>
	<text x="29" y="228.7" fill="#000000" font-family="Verdana" font-size="12">GENRE</text>
	<text x="14" y="253.8" fill="#000000" font-family="Verdana" font-size="12">genre name</text>
	<line x1="14" y1="256" x2="87" y2="256" stroke="#000000" stroke-width="1"/>
</g>

<!-- Entity FILM -->
<g id="entity-FILM">
	<g id="frame-FILM">
		<rect x="122" y="84" width="86" height="25" fill="#a6d96a" stroke="#a6d96a" stroke-width="0"/>
		<rect x="122" y="109.0" width="86" height="77" fill="#d9ef8b" stroke="#d9ef8b" stroke-width="0"/>
		<rect x="122" y="84" width="86" height="102" fill="none" stroke="#66bd63" stroke-width="2"/>
		<line x1="122" y1="109" x2="208" y2="109" stroke="#66bd63" stroke-width="1"/>
	</g>
	<text x="150" y="101.7" fill="#000000" font-family="Verdana" font-size="12">FILM</text>
	<text x="127" y="126.7" fill="#000000" font-family="Verdana" font-size="12">title</text>
	<line x1="127" y1="129" x2="151" y2="129" stroke="#000000" stroke-width="1"/>
	<text x="127" y="143.8" fill="#000000" font-family="Verdana" font-size="12">duration</text>
	<text x="127" y="160.8" fill="#000000" font-family="Verdana" font-size="12">synopsis</text>
	<text x="127" y="177.8" fill="#000000" font-family="Verdana" font-size="12">release date</text>
</g>

<!-- Entity REVIEW -->
<g id="entity-REVIEW">
	<g id="frame-REVIEW">
		<rect x="233" y="211" width="100" height="25" fill="#a6d96a" stroke="#a6d96a" stroke-width="0"/>
		<rect x="233" y="236.0" width="100" height="43" fill="#d9ef8b" stroke="#d9ef8b" stroke-width="0"/>
		<rect x="233" y="211" width="100" height="68" fill="none" stroke="#66bd63" stroke-width="2"/>
		<line x1="233" y1="236" x2="333" y2="236" stroke="#66bd63" stroke-width="1"/>
	</g>
	<text x="258" y="228.7" fill="#000000" font-family="Verdana" font-size="12">REVIEW</text>
	<text x="238" y="253.8" fill="#000000" font-family="Verdana" font-size="12">review content</text>
	<line x1="238" y1="256" x2="328" y2="256" stroke="#000000" stroke-width="1"/>
	<text x="238" y="270.8" fill="#000000" font-family="Verdana" font-size="12">published date</text>
</g>

<!-- Entity USER -->
<g id="entity-USER">
	<g id="frame-USER">
		<rect x="245" y="9" width="76" height="25" fill="#a6d96a" stroke="#a6d96a" stroke-width="0"/>
		<rect x="245" y="34.0" width="76" height="25" fill="#d9ef8b" stroke="#d9ef8b" stroke-width="0"/>
		<rect x="245" y="9" width="76" height="50" fill="none" stroke="#66bd63" stroke-width="2"/>
		<line x1="245" y1="34" x2="321" y2="34" stroke="#66bd63" stroke-width="1"/>
	</g>
	<text x="266" y="26.7" fill="#000000" font-family="Verdana" font-size="12">USER</text>
	<text x="250" y="51.8" fill="#000000" font-family="Verdana" font-size="12">user name</text>
	<line x1="250" y1="54" x2="315" y2="54" stroke="#000000" stroke-width="1"/>
</g>

<!-- Entity ACTOR -->
<g id="entity-ACTOR">
	<g id="frame-ACTOR">
		<rect x="11" y="9" width="80" height="25" fill="#a6d96a" stroke="#a6d96a" stroke-width="0"/>
		<rect x="11" y="34.0" width="80" height="25" fill="#d9ef8b" stroke="#d9ef8b" stroke-width="0"/>
		<rect x="11" y="9" width="80" height="50" fill="none" stroke="#66bd63" stroke-width="2"/>
		<line x1="11" y1="34" x2="91" y2="34" stroke="#66bd63" stroke-width="1"/>
	</g>
	<text x="29" y="26.7" fill="#000000" font-family="Verdana" font-size="12">ACTOR</text>
	<text x="16" y="51.8" fill="#000000" font-family="Verdana" font-size="12">actor name</text>
	<line x1="16" y1="54" x2="85" y2="54" stroke="#000000" stroke-width="1"/>
</g>
</svg>